<svg xmlns="http://www.w3.org/2000/svg" width="2400" height="1400" viewBox="0 0 2400 1400">
  <defs>
    <linearGradient id="g0" x1="0" x2="1" y1="0" y2="1">
      <stop offset="0" stop-color="#0B0D10"/>
      <stop offset="0.55" stop-color="#151B24"/>
      <stop offset="1" stop-color="#07080A"/>
    </linearGradient>
    <linearGradient id="g1" x1="0" x2="1" y1="0" y2="0">
      <stop offset="0" stop-color="#E10600" stop-opacity="0"/>
      <stop offset="0.35" stop-color="#E10600" stop-opacity="0.8"/>
      <stop offset="0.7" stop-color="#E10600" stop-opacity="0.2"/>
      <stop offset="1" stop-color="#E10600" stop-opacity="0"/>
    </linearGradient>
    <radialGradient id="glow" cx="74%" cy="30%" r="70%">
      <stop offset="0" stop-color="#E10600" stop-opacity="0.45"/>
      <stop offset="0.35" stop-color="#E10600" stop-opacity="0.12"/>
      <stop offset="1" stop-color="#E10600" stop-opacity="0"/>
    </radialGradient>
    <filter id="soft" x="-20%" y="-20%" width="140%" height="140%">
      <feGaussianBlur stdDeviation="26"/>
    </filter>
    <pattern id="grid" width="120" height="120" patternUnits="userSpaceOnUse">
      <path d="M120 0H0V120" fill="none" stroke="rgba(255,255,255,0.08)" stroke-width="1"/>
      <path d="M0 60H120" fill="none" stroke="rgba(255,255,255,0.05)" stroke-width="1"/>
      <path d="M60 0V120" fill="none" stroke="rgba(255,255,255,0.05)" stroke-width="1"/>
    </pattern>
  </defs>

  <rect width="2400" height="1400" fill="url(#g0)"/>
  <rect width="2400" height="1400" fill="url(#grid)" opacity="0.35"/>
  <rect width="2400" height="1400" fill="url(#glow)"/>

  <g opacity="0.95">
    <path d="M-220 980 C 340 780, 820 1200, 1380 980 C 1820 806, 2100 900, 2700 780" fill="none" stroke="url(#g1)" stroke-width="20" filter="url(#soft)"/>
    <path d="M-220 1060 C 340 860, 820 1280, 1380 1060 C 1820 886, 2100 980, 2700 860" fill="none" stroke="rgba(255,255,255,0.16)" stroke-width="2"/>
    <path d="M-220 900 C 340 700, 820 1120, 1380 900 C 1820 726, 2100 820, 2700 700" fill="none" stroke="rgba(255,255,255,0.12)" stroke-width="2"/>
  </g>

  <g opacity="0.22">
    <path d="M1650 -120 L2620 850" stroke="#E10600" stroke-width="6"/>
    <path d="M1720 -160 L2690 810" stroke="#E10600" stroke-width="3"/>
  </g>
</svg>
