<svg xmlns="http://www.w3.org/2000/svg" width="1920" height="720" viewBox="0 0 1920 720">
  <defs>
    <linearGradient id="bg" x1="0" x2="1" y1="0" y2="1">
      <stop offset="0" stop-color="#0B0D10"/>
      <stop offset="0.45" stop-color="#161A20"/>
      <stop offset="1" stop-color="#0B0D10"/>
    </linearGradient>
    <linearGradient id="red" x1="0" x2="1" y1="0" y2="0">
      <stop offset="0" stop-color="#E10600" stop-opacity="0.0"/>
      <stop offset="0.4" stop-color="#E10600" stop-opacity="0.65"/>
      <stop offset="1" stop-color="#E10600" stop-opacity="0.0"/>
    </linearGradient>
    <filter id="blur" x="-20%" y="-20%" width="140%" height="140%">
      <feGaussianBlur stdDeviation="24"/>
    </filter>
  </defs>
  <rect width="1920" height="720" fill="url(#bg)"/>
  <g opacity="0.9">
    <path d="M-100 520 C 240 420, 540 640, 900 520 C 1220 412, 1500 520, 2050 420" fill="none" stroke="url(#red)" stroke-width="18" filter="url(#blur)"/>
    <path d="M-120 560 C 220 460, 520 680, 880 560 C 1200 452, 1480 560, 2030 460" fill="none" stroke="rgba(255,255,255,0.12)" stroke-width="2"/>
    <path d="M-80 480 C 260 380, 560 600, 920 480 C 1240 372, 1520 480, 2070 380" fill="none" stroke="rgba(255,255,255,0.10)" stroke-width="2"/>
  </g>
  <g opacity="0.12">
    <rect x="0" y="0" width="1920" height="720" fill="none"/>
    <path d="M0 170 H1920" stroke="#ffffff" stroke-width="1"/>
    <path d="M0 340 H1920" stroke="#ffffff" stroke-width="1"/>
    <path d="M0 510 H1920" stroke="#ffffff" stroke-width="1"/>
  </g>
  <g opacity="0.18">
    <path d="M1380 -80 L1960 500" stroke="#E10600" stroke-width="6"/>
    <path d="M1440 -120 L2020 460" stroke="#E10600" stroke-width="3"/>
  </g>
</svg>
